PathFileType	4	(X/Y/Z)	../Python\walking\Walking18\task.trc
DataRate	CameraRate	NumFrames	NumMarkers	Units	OrigDataRate	OrigDataStartFrame	OrigNumFrames
200.000000	200.000000	4	30	mm	200.000000	329	439
Frame#	Time	RBAK			CLAV			STRN			RASI			LASI			PE01			RTH1			RTH2			RTH3			RTB3			RHEE			RD5M			RTOE			LTH2			LTH3			LTB2			LTB3			LHEE			LTOE			LD5M			LTB1			C7			RTB1			RTB2			LPSI			PE03			PE02			RPSI			LTH1			T10			
		X1	Y1	Z1	X2	Y2	Z2	X3	Y3	Z3	X4	Y4	Z4	X5	Y5	Z5	X6	Y6	Z6	X7	Y7	Z7	X8	Y8	Z8	X9	Y9	Z9	X10	Y10	Z10	X11	Y11	Z11	X12	Y12	Z12	X13	Y13	Z13	X14	Y14	Z14	X15	Y15	Z15	X16	Y16	Z16	X17	Y17	Z17	X18	Y18	Z18	X19	Y19	Z19	X20	Y20	Z20	X21	Y21	Z21	X22	Y22	Z22	X23	Y23	Z23	X24	Y24	Z24	X25	Y25	Z25	X26	Y26	Z26	X27	Y27	Z27	X28	Y28	Z28	X29	Y29	Z29	X30	Y30	Z30	

330	1.645	308.4223022460939	1254.9892578125	295.8897094726564	461.5872497558596	1261.9794921875	167.0833435058594	519.041198730469	1077.443115234375	157.0349121093751	486.3430175781252	883.9490356445317	299.9248046875001	477.8181152343752	868.0166015625005	73.76359558105472	289.938446044922	962.2139282226567	201.7463531494142	429.1558227539065	589.9199218750002	330.4985656738282	447.5846862792971	515.0617675781252	309.9747009277345	474.0268859863284	570.923767089844	317.2638244628907	424.191345214844	213.8771209716798	276.4656982421876	322.344696044922	30.28101348876955	207.6658477783204	470.7818908691409	15.90868568420411	277.485565185547	509.7510986328127	32.1391944885254	224.6264648437501	480.6250305175784	551.287536621094	55.34814453125003	536.5459594726565	605.5380859375002	40.22012329101564	390.8998718261721	270.5547790527345	71.31121063232425	439.7403869628909	274.9595947265626	71.42407226562503	275.6633605957032	125.3300933837891	137.7549896240235	443.7928466796877	51.98198699951175	109.0354003906251	400.5183105468752	54.832389831543	70.90097808837893	433.7624206542971	335.0499267578126	58.8169975280762	343.7368469238282	1358.259643554688	188.7900695800782	445.0830078125002	289.8881835937501	284.5877075195314	398.0588989257815	252.5203399658204	295.206512451172	283.4729919433595	922.6433715820317	162.8963317871094	272.1095275878907	900.547973632813	180.118148803711	274.3746948242189	904.264526367188	230.4980621337892	288.7014160156251	930.2621459960942	251.6251983642579	486.4978332519534	610.4808349609377	40.09209442138673	310.3489379882814	1061.352172851563	193.335906982422	
331	1.65	315.4624023437501	1255.73486328125	296.4091186523439	467.9833068847659	1262.263427734375	166.6858367919922	525.1209716796877	1077.774658203125	156.7027435302735	492.7906494140627	884.1298217773442	300.2720031738282	483.9551086425784	868.8903808593755	74.24803161621097	296.2130432128907	962.5850219726567	202.6028289794923	432.9963378906252	589.9509277343752	330.2301025390626	450.4196472167971	514.8775634765627	309.6277160644532	477.5346679687502	570.404479980469	316.6945800781251	424.8084411621096	213.8001098632814	276.2664489746095	322.3704223632814	30.40901184082033	207.5557556152345	470.8079528808596	15.95653533935548	277.4541320800782	509.7939453125002	32.11108016967775	224.5569152832032	490.0151977539065	552.7058105468752	56.18702697753909	545.1907348632815	607.584899902344	40.95055389404298	406.6177368164065	267.4436645507814	71.4969177246094	455.2931823730471	273.415008544922	71.81584930419925	295.8505859375001	118.6146545410157	137.4868164062501	466.6086425781252	51.01179122924808	109.535026550293	423.2892761230471	52.31703186035159	71.22589874267581	447.4252624511721	333.3094482421876	59.1054382324219	350.4001770019532	1358.66357421875	188.8186645507813	446.0081176757815	289.7583923339845	284.2979125976564	398.8488769531252	252.5721435546876	295.0091857910157	289.7379455566407	923.035278320313	163.6228942871094	278.4440002441407	900.9647827148442	180.7438964843751	280.7603454589845	904.480102539063	231.1335906982423	295.1772460937501	930.503540039063	252.3993377685548	495.2090148925784	611.9598388671877	40.85917282104494	316.6446533203126	1061.79638671875	194.2269287109376	
332	1.655	322.4819335937501	1256.383544921875	296.9075317382814	474.3715515136721	1262.456176757813	166.298568725586	531.2059326171877	1078.020141601563	156.395492553711	499.2344665527346	884.2306518554692	300.6283264160157	490.1408691406252	869.667602539063	74.74380493164065	302.4962463378907	962.8447265625005	203.4047851562501	436.8403320312502	589.9349365234377	329.9745178222657	453.2852172851565	514.6743774414065	309.2886352539064	481.039001464844	569.8532714843752	316.1243286132814	425.4441528320315	213.7206268310548	276.0696411132814	322.3930053710939	30.5365562438965	207.4505157470704	470.8367919921877	16.00643730163575	277.4246520996095	509.848083496094	32.09810638427736	224.4825897216798	499.160095214844	554.0210571289065	57.05942535400393	553.634460449219	609.4585571289065	41.66550445556642	422.356628417969	264.2905883789064	71.7137145996094	470.8183288574221	271.8488769531251	72.19158935546878	316.3452148437501	111.9083862304688	137.232162475586	489.5428771972659	50.15441513061526	110.0233764648438	446.2207031250002	49.90871047973636	71.53672790527347	461.0173950195315	331.5034179687501	59.42030334472659	357.0484008789064	1358.973022460938	188.8325653076172	446.9440917968752	289.6221923828126	284.0198669433595	399.6638183593752	252.6171722412111	294.8284301757814	296.0255432128907	923.3129272460942	164.2985992431641	284.800262451172	901.2670288085942	181.3213653564454	287.1545715332032	904.5889282226567	231.7215423583986	301.6565551757814	930.6415405273442	253.1250610351564	503.7274475097659	613.320251464844	41.63773727416994	322.9383544921876	1062.140258789063	195.0800933837892	
333	1.66	329.4810180664064	1256.9326171875	297.3851318359376	480.7535095214846	1262.55615234375	165.9221954345704	537.2993774414065	1078.1767578125	156.1131744384766	505.6746215820315	884.2477416992192	300.993377685547	496.3764648437502	870.3412475585942	75.24579620361331	308.7900695800782	962.9910278320317	204.1486816406251	440.6902770996096	589.8736572265627	329.7368469238282	456.180114746094	514.4530029296877	308.9613037109376	484.5415954589846	569.2719726562502	315.5562438964845	426.1012268066409	213.6392822265626	275.8766174316407	322.4130859375001	30.66208076477052	207.3523559570314	470.8669433593752	16.05842590332032	277.3969726562501	509.913269042969	32.10176086425783	224.4026641845704	508.0616149902346	555.2212524414065	57.96309280395511	561.8907470703127	611.146911621094	42.37233734130861	438.1085510253909	261.1102600097657	71.9660568237305	486.3050842285159	270.2735595703126	72.55390930175784	337.1331787109376	105.2502975463868	136.9998931884766	512.572448730469	49.42818450927737	110.4944152832032	469.2879028320315	47.63343811035158	71.8310470581055	474.5327453613284	329.6389770507814	59.76549911499026	363.6819763183595	1359.185913085938	188.8321380615235	447.8943176269534	289.4797973632814	283.7557373046876	400.5060119628909	252.6558990478517	294.6666259765626	302.3354797363282	923.4733886718755	164.9228515625001	291.1773986816407	901.4526367187505	181.8496246337891	293.556854248047	904.5913085937505	232.2608642578126	308.1380004882814	930.675903320313	253.7996826171876	512.058532714844	614.5513916015627	42.42790985107423	329.2310485839845	1062.381713867188	195.8933258056642	
